<svg xmlns="http://www.w3.org/2000/svg" xmlns:xlink="http://www.w3.org/1999/xlink" version="1.1" width="213.76415pt" height="43.412034pt" viewBox="0 0 213.76415 43.412034">
<defs>
<path id="font_0_93" d="M.13899231-.25001527C.15232849-.25001527 .15899658-.2420044 .15899658-.22601319V.7259979C.15899658 .74198916 .15232849 .75 .13899231 .75 .12565613 .75 .11898804 .74198916 .11898804 .7259979V-.22601319C.11898804-.2420044 .12565613-.25001527 .13899231-.25001527Z"/>
<path id="font_0_3373" d="M.5339966 .3933258C.5339966 .38398744 .5393219 .37397767 .5499878 .36331178 .57333377 .3413086 .58499148 .31430055 .58499148 .2822876 .58499148 .25361634 .5756531 .22193909 .5569916 .18727112 .5216675 .11991882 .47633363 .071899417 .42099 .04322815 .3876648 .026565552 .35466004 .01789856 .32199098 .017227173L.48399354 .6633301C.48599244 .6719971 .4869995 .6773224 .4869995 .6793213 .4869995 .68933108 .48165895 .69433596 .47099305 .69433596 .46632386 .69433596 .46266175 .69332888 .45999146 .69132998 .45599366 .68333438 .45365907 .67666628 .45298768 .6713257L.2899933 .019226075C.21932984 .028564454 .18399048 .0642395 .18399048 .12625122 .18399048 .15359497 .20166016 .21461487 .23699951 .30929566 .24432373 .32929994 .24798584 .34597779 .24798584 .35931397 .24798584 .40890504 .21290589 .44433595 .16299439 .44433595 .11833191 .44433595 .08366394 .41932679 .05899048 .36932374 .038986207 .32929994 .0289917 .30229188 .0289917 .28829957 .0289917 .27896119 .034332277 .274292 .04499817 .274292 .058380128 .274292 .059951784 .28018189 .06399536 .29429627 .08732605 .37431336 .11932373 .4143219 .1599884 .4143219 .17399597 .4143219 .18099976 .4053192 .18099976 .38731385 .18099976 .37132264 .17366028 .3433075 .15899658 .30329896 .1269989 .21861267 .11099243 .16226197 .11099243 .13426209 .11099243 .046905519 .16799927-.0011138916 .28199769-.009765625 .27398683-.045166017 .2669983-.07388306 .26098634-.09591675 .2456665-.15266419 .23799134-.1847229 .23799134-.19206238 .2407074-.20019531 .24186707-.20507813 .25498963-.20507813L.2649994-.20108032C.2709961-.1850586 .27566529-.17036438 .2789917-.15701294L.31498719-.012771606C.39698792-.011444092 .46899415 .02456665 .5309906 .09524536 .56365969 .13192749 .58799746 .17193604 .60398867 .215271 .6246643 .27062989 .6349945 .32263185 .6349945 .37132264 .6349945 .41999818 .61932376 .44433595 .58799746 .44433595 .56225588 .44433595 .5339966 .41885377 .5339966 .3933258Z"/>
<path id="font_0_1701" d="M.27799989 .24198914C.278656 .24398804 .2789917 .24665833 .2789917 .25 .2789917 .25332643 .278656 .2559967 .27799989 .2579956L.09799194 .7350006C.09399414 .7449951 .08665466 .75 .07598877 .75 .060653688 .75 .052993776 .74198916 .052993776 .7259979 .052993776 .72265627 .053329469 .7200012 .053985597 .71798709L.23098755 .25 .053985597-.2170105C.053329469-.2190094 .052993776-.22201538 .052993776-.22601319 .052993776-.2420044 .060653688-.25001527 .07598877-.25001527 .08665466-.25001527 .09399414-.24501038 .09799194-.23500061L.27799989 .24198914Z"/>
<path id="font_1_2400" d="M.57177737-.12207031C.61897787-.140625 .6577962-.15340169 .6882324-.16040039 .71866866-.1673991 .7522786-.17089844 .7890625-.17089844 .8151042-.17089844 .84627279-.16560872 .88256838-.1550293 .91886398-.14444988 .9529622-.13004558 .9848633-.111816409L1.0019531-.12988281C.97005209-.15917969 .9304199-.18253581 .88305667-.19995117 .83569338-.21736653 .78597006-.22607422 .7338867-.22607422 .6538086-.22607422 .57682296-.21077474 .5029297-.18017578 .44010417-.15478516 .3919271-.13720703 .35839845-.1274414 .32486979-.11767578 .29134117-.11279297 .2578125-.11279297 .24251302-.11279297 .22623699-.119628909 .20898438-.13330078 .1985677-.14534505 .1883138-.15852864 .17822266-.17285156L.1381836-.15283203C.16878255-.110839847 .20735677-.072916667 .25390626-.0390625 .27018229-.027018229 .28727214-.016438803 .30517579-.0073242189 .22770183 .002766927 .1636556 .036376954 .11303711 .09350586 .06241862 .15063477 .037109376 .22281902 .037109376 .3100586 .037109376 .4099935 .06477865 .4930013 .12011719 .55908206 .17545574 .6251628 .25016276 .6582031 .34423829 .6582031 .43701173 .6582031 .51383468 .6284993 .57470706 .5690918 .6355794 .50968429 .6660156 .4296875 .6660156 .32910157 .6660156 .24576824 .64534506 .17480469 .6040039 .11621094 .55582687 .047851564 .48909507 .0071614587 .4038086-.005859375 .36442057-.016601563 .32421876-.036621095 .28320313-.06591797 .2799479-.06819662 .27669273-.07063802 .2734375-.07324219 .28385417-.0719401 .29410807-.071126308 .30419923-.07080078 .39534507-.071126308 .48453776-.08821615 .57177737-.12207031M.3310547 .6220703C.2763672 .6220703 .22965496 .5974121 .19091797 .5480957 .15218099 .4987793 .1328125 .42513023 .1328125 .32714845 .1328125 .23502605 .15616863 .16178386 .20288086 .107421878 .2495931 .053059896 .30533854 .025878907 .3701172 .025878907 .42871095 .025878907 .4766439 .051432294 .513916 .10253906 .5511882 .15364583 .5698242 .22281902 .5698242 .3100586 .5698242 .4073893 .5472005 .48372398 .5019531 .5390625 .45670573 .59440109 .3997396 .6220703 .3310547 .6220703M.9379883-.009765625C.89208987-.009765625 .85913088 .0030110677 .8391113 .028564454 .8190918 .05411784 .80908206 .08658854 .80908206 .12597656V.3178711C.80908206 .3491211 .80493167 .36979167 .79663088 .3798828 .7883301 .38997398 .7718099 .3959961 .7470703 .39794923 .7438151 .40055339 .7421875 .4058431 .7421875 .41381837 .7421875 .4217936 .7438151 .42757163 .7470703 .43115235 .7923177 .42985026 .82633468 .42919923 .8491211 .42919923 .86572268 .42919923 .8772786 .42985026 .88378909 .43115235 .8889974 .43115235 .89176437 .42903648 .89208987 .4248047 .88948568 .37597657 .8881836 .34163413 .8881836 .32177735V.14013672C.8881836 .100748699 .8963216 .07373047 .91259768 .05908203 .9288737 .044433595 .9472656 .037109376 .96777346 .037109376 .9970703 .037109376 1.0304362 .053059896 1.0678711 .08496094 1.0786133 .09440104 1.0839844 .107421878 1.0839844 .12402344V.31689454C1.0839844 .34879557 1.0799967 .36995445 1.0720215 .3803711 1.0640463 .39078776 1.0473633 .39664714 1.0219727 .39794923 1.0193685 .40055339 1.0180664 .4058431 1.0180664 .41381837 1.0180664 .4217936 1.0193685 .42757163 1.0219727 .43115235 1.0672201 .42985026 1.1012369 .42919923 1.1240234 .42919923 1.140625 .42919923 1.1523438 .42985026 1.1591797 .43115235 1.1643881 .43115235 1.1669922 .42903648 1.1669922 .4248047 1.1643881 .37597657 1.1630859 .34163413 1.1630859 .32177735V.12988281C1.1630859 .10384115 1.1675619 .08585612 1.1765137 .075927738 1.1854655 .06599935 1.2052409 .059733076 1.2358399 .057128908 1.238444 .0538737 1.2398275 .049235029 1.2399902 .04321289 1.240153 .037190755 1.2387695 .032714845 1.2358399 .029785157 1.1824545 .023925782 1.1432291 .0107421879 1.1181641-.009765625 1.1123047-.012369792 1.105957-.012369792 1.0991211-.009765625 1.0932617 .013020833 1.0895182 .032552083 1.0878906 .048828126 1.0872396 .052083333 1.0852865 .05362956 1.0820313 .053466798 1.078776 .053304037 1.0758463 .052083333 1.0732422 .049804689 1.0244141 .0100911459 .9793294-.009765625 .9379883-.009765625Z"/>
<path id="font_1_68" d="M.29296876 .23291016 .21386719 .21191406C.15039063 .19596355 .1188151 .15934246 .119140628 .10205078 .119140628 .08414713 .12524414 .06778971 .13745117 .052978517 .1496582 .038167318 .16748047 .030761719 .19091797 .030761719 .21370442 .030761719 .2430013 .045572919 .2788086 .07519531 .2882487 .08268229 .29296876 .091308597 .29296876 .10107422V.23291016M.29296876 .047851564H.29101563L.2709961 .032226564C.23486328 .004231771 .1985677-.009765625 .16210938-.009765625 .078125-.009765625 .036132814 .026204428 .036132814 .09814453 .036132814 .13134766 .05126953 .16064453 .08154297 .18603516 .111816409 .21142578 .1516927 .23046875 .20117188 .24316406L.28710938 .26416017C.29101563 .26546226 .29296876 .2693685 .29296876 .2758789 .29296876 .36246745 .26595054 .40576173 .21191406 .40576173 .18977864 .40576173 .17089844 .40226237 .15527344 .39526368 .13964844 .38826499 .13183594 .37776695 .13183594 .36376954 .13183594 .35432945 .13248699 .347819 .13378906 .34423829 .13574219 .34033204 .13688152 .3343099 .13720703 .32617188 .13720703 .3186849 .13264974 .31111656 .123535159 .3034668 .11442057 .29581706 .1031901 .2919922 .08984375 .2919922 .06640625 .2919922 .05485026 .30403648 .05517578 .328125 .05517578 .35611979 .07234701 .3815918 .10668945 .40454103 .1410319 .42749024 .1788737 .43896485 .22021485 .43896485 .32080079 .43896485 .37109376 .38264976 .37109376 .27001954V.123046878C.37109376 .10904948 .3712565 .09806315 .37158204 .09008789 .37190757 .08211263 .37304688 .073404949 .375 .063964847 .37695313 .05452474 .38012696 .047851564 .38452149 .043945314 .38891603 .040039064 .3943685 .038085939 .4008789 .038085939 .4129232 .038085939 .42529298 .04345703 .43798829 .05419922 .44742839 .048990888 .453125 .0398763 .45507813 .026855469 .4296875 .0021158856 .39794923-.0100911459 .35986329-.009765625 .3370768-.009765625 .32104493-.004801432 .31176759 .005126953 .30249024 .015055339 .29622398 .029296875 .29296876 .047851564Z"/>
<path id="font_1_81" d="M.18408203 .35791017C.23128255 .41194663 .28597007 .43896485 .34814454 .43896485 .38623048 .43896485 .41389976 .42757163 .43115235 .40478517 .449056 .38069663 .4580078 .33610026 .4580078 .2709961V.12207031C.4580078 .08268229 .46183268 .05834961 .46948243 .049072267 .47713218 .039794923 .49560548 .033691408 .52490237 .030761719 .52750656 .02750651 .5288086 .021891276 .5288086 .013916016 .5288086 .0059407555 .52750656 .0006510417 .52490237-.001953125 .48486329-.0006510417 .44954429 0 .4189453 0 .39095054 0 .3569336-.0006510417 .31689454-.001953125 .31429038 .0013020834 .31298829 .006917318 .31298829 .014892578 .31298829 .022867838 .31429038 .028157553 .31689454 .030761719 .34423829 .033365888 .36140953 .03938802 .3684082 .048828126 .3754069 .05826823 .37890626 .08268229 .37890626 .12207031V.27392579C.37890626 .30940757 .375 .3351237 .3671875 .35107423 .3544922 .37516276 .3367513 .38720704 .31396485 .38720704 .27327476 .38720704 .23258464 .36751304 .19189453 .328125 .1805013 .3154297 .17480469 .30143229 .17480469 .2861328V.12207031C.17480469 .08268229 .17830403 .05834961 .18530274 .049072267 .19230144 .039794923 .20914714 .033691408 .23583985 .030761719 .23844402 .02750651 .23982747 .021891276 .23999024 .013916016 .240153 .0059407555 .23876953 .0006510417 .23583985-.001953125 .19580078-.0006510417 .16259766 0 .13623047 0 .103027347 0 .06624349-.0006510417 .025878907-.001953125 .02327474 .0006510417 .021972657 .0059407555 .021972657 .013916016 .021972657 .021891276 .02327474 .02750651 .025878907 .030761719 .057128908 .033365888 .076660159 .03922526 .084472659 .048339845 .092285159 .057454427 .096191409 .08203125 .096191409 .12207031V.31689454C.096191409 .3448893 .09236654 .36254884 .0847168 .36987306 .077067058 .37719728 .05908203 .38216148 .030761719 .38476563 .026855469 .39615885 .026204428 .40559898 .028808594 .41308595 .07828776 .41959635 .11930338 .42919923 .15185547 .44189454 .1570638 .44189454 .16113281 .43929038 .1640625 .43408204 .16796875 .425944 .17057292 .40055339 .171875 .35791017 .171875 .3491211 .17594402 .3491211 .18408203 .35791017Z"/>
<path id="font_1_87" d="M.04296875 .42919923H.08886719C.08886719 .45458985 .08870443 .47558595 .088378909 .4921875 .08805338 .50878909 .08772787 .5196126 .087402347 .5246582 .08707682 .5297038 .086751308 .5338542 .08642578 .5371094 .08610026 .54036459 .0859375 .54296877 .0859375 .5449219 .0859375 .5498047 .09326172 .554362 .107910159 .55859377 .119628909 .56184896 .13102214 .56656906 .14208985 .5727539 .15315755 .5786133 .16048177 .58170577 .1640625 .58203127 .16927083 .58203127 .171875 .57910159 .171875 .5732422 .16927083 .5465495 .16796875 .51139327 .16796875 .46777345V.42919923H.28808595C.29329429 .42919923 .29589845 .42708335 .29589845 .42285157V.40283204C.29589845 .39404298 .2879232 .3898112 .27197267 .39013673H.16796875V.13720703C.16796875 .104654949 .17032878 .08113607 .17504883 .06665039 .17976888 .052164716 .18847656 .044921876 .20117188 .044921876 .23177083 .044921876 .2591146 .05436198 .28320313 .07324219 .29329429 .07259115 .29915367 .06689453 .30078126 .056152345 .26139323 .012207031 .21647136-.009765625 .16601563-.009765625 .114583339-.009765625 .08886719 .023111979 .08886719 .08886719V.39013673H.029785157C.026529948 .39013673 .024902344 .39208985 .024902344 .3959961V.4091797C.024902344 .42252604 .030924479 .42919923 .04296875 .42919923Z"/>
<path id="font_1_88" d="M.21679688-.009765625C.17089844-.009765625 .13793946 .0030110677 .11791992 .028564454 .09790039 .05411784 .087890628 .08658854 .087890628 .12597656V.3178711C.087890628 .3491211 .083740238 .36979167 .07543945 .3798828 .06713867 .38997398 .05061849 .3959961 .025878907 .39794923 .02327474 .40055339 .021972657 .4058431 .021972657 .41381837 .021972657 .4217936 .02327474 .42757163 .025878907 .43115235 .071126308 .42985026 .10514323 .42919923 .12792969 .42919923 .14453125 .42919923 .15625 .42985026 .16308594 .43115235 .16829427 .43115235 .17089844 .42903648 .17089844 .4248047 .16829427 .37597657 .16699219 .34163413 .16699219 .32177735V.14013672C.16699219 .100748699 .1751302 .07373047 .19140625 .05908203 .2076823 .044433595 .22623699 .037109376 .24707031 .037109376 .27701823 .037109376 .31038413 .053059896 .34716798 .08496094 .35791017 .09440104 .3631185 .107421878 .36279298 .12402344V.31689454C.36279298 .34879557 .35880534 .36995445 .35083009 .3803711 .34285484 .39078776 .32617188 .39664714 .30078126 .39794923 .29752604 .40055339 .29589845 .4058431 .29589845 .41381837 .29589845 .4217936 .29752604 .42757163 .30078126 .43115235 .34602867 .42985026 .38004557 .42919923 .40283204 .42919923 .4194336 .42919923 .43115235 .42985026 .43798829 .43115235 .44319663 .43115235 .44580079 .42903648 .44580079 .4248047 .44319663 .37597657 .44189454 .34163413 .44189454 .32177735V.12988281C.44189454 .10384115 .4464518 .08585612 .4555664 .075927738 .464681 .06599935 .48453776 .059733076 .5151367 .057128908 .5183919 .0538737 .52001956 .049235029 .52001956 .04321289 .52001956 .037190755 .5183919 .032714845 .5151367 .029785157 .4617513 .023925782 .42236329 .0107421879 .39697267-.009765625 .39111329-.012369792 .38476563-.012369792 .3779297-.009765625 .3720703 .013020833 .3684896 .032552083 .3671875 .048828126 .36653648 .052083333 .36450196 .05362956 .36108399 .053466798 .35766603 .053304037 .35465495 .052083333 .35205079 .049804689 .30257163 .0100911459 .25748698-.009765625 .21679688-.009765625Z"/>
<path id="font_1_80" d="M.16992188 .35791017C.17057292 .3491211 .17464192 .3491211 .1821289 .35791017 .22998047 .41194663 .28059898 .43896485 .33398438 .43896485 .359375 .43896485 .3811849 .43204753 .39941407 .4182129 .41764323 .40437828 .42919923 .3868815 .43408204 .36572267 .43570964 .35921226 .43929038 .35904948 .44482423 .36523438 .4913737 .41438804 .5463867 .43896485 .6098633 .43896485 .6505534 .43896485 .67789718 .42529298 .69189456 .39794923 .7058919 .37060548 .7128906 .33121745 .7128906 .27978517V.12207031C.7128906 .08203125 .71638998 .057373048 .7233887 .048095704 .7303874 .03881836 .74820968 .033040365 .77685549 .030761719 .77945968 .02750651 .7807617 .021891276 .7807617 .013916016 .7807617 .0059407555 .77945968 .0006510417 .77685549-.001953125 .7394206-.0006510417 .7050781 0 .6738281 0 .63932296 0 .60530599-.0006510417 .57177737-.001953125 .56917318 .0006510417 .5678711 .0059407555 .5678711 .013916016 .5678711 .021891276 .56917318 .02750651 .57177737 .030761719 .5991211 .032714845 .6162923 .03857422 .623291 .048339845 .63028976 .05810547 .63378909 .08268229 .63378909 .12207031V.29785157C.63378909 .3297526 .6288249 .35262046 .6188965 .36645509 .6089681 .3802897 .5940755 .38720704 .57421877 .38720704 .5263672 .38720704 .48225913 .36507163 .44189454 .32080079 .44254557 .31266276 .4428711 .2993164 .4428711 .28076173V.12207031C.4428711 .08203125 .44620768 .057373048 .45288087 .048095704 .45955406 .03881836 .47591148 .033040365 .5019531 .030761719 .5045573 .02750651 .5058594 .022054038 .5058594 .014404297 .5058594 .006754557 .5045573 .0013020834 .5019531-.001953125 .46875-.0006510417 .43603517 0 .4038086 0 .36930339 0 .33528648-.0006510417 .3017578-.001953125 .29915367 .0013020834 .29785157 .006917318 .29785157 .014892578 .29785157 .022867838 .29915367 .028157553 .3017578 .030761719 .3297526 .032714845 .34708659 .038411458 .35375978 .047851564 .36043296 .057291669 .36376954 .08203125 .36376954 .12207031V.29589845C.36376954 .3564453 .34179688 .3868815 .29785157 .38720704 .26595054 .38720704 .22998047 .36751304 .1899414 .328125 .17854817 .31608073 .17285156 .30208335 .17285156 .2861328V.12207031C.17285156 .09440104 .17480469 .07454427 .17871094 .0625 .18261719 .05045573 .18815105 .04264323 .1953125 .0390625 .20247396 .03548177 .21565755 .032714845 .23486328 .030761719 .23779297 .027832032 .23925781 .022379557 .23925781 .014404297 .23925781 .0064290368 .23779297 .0009765625 .23486328-.001953125 .19482422-.0006510417 .16113281 0 .13378906 0 .10188802 0 .06591797-.0006510417 .025878907-.001953125 .02327474 .0006510417 .021972657 .0059407555 .021972657 .013916016 .021972657 .021891276 .02327474 .02750651 .025878907 .030761719 .05517578 .032714845 .07389323 .03857422 .08203125 .048339845 .09016927 .05810547 .09423828 .08268229 .09423828 .12207031V.31689454C.09423828 .3448893 .09033203 .36254884 .08251953 .36987306 .07470703 .37719728 .056803388 .38216148 .028808594 .38476563 .024902344 .39615885 .024251303 .40559898 .026855469 .41308595 .07633463 .41959635 .11735026 .42919923 .14990235 .44189454 .15511067 .44189454 .15917969 .43929038 .16210938 .43408204 .16536458 .42659507 .16796875 .40120445 .16992188 .35791017Z"/>
<path id="font_1_38" d="M.3569336-.009765625C.25439454-.009765625 .17545574 .020507813 .12011719 .08105469 .06477865 .14160156 .037109376 .2179362 .037109376 .3100586 .037109376 .36214195 .04638672 .41129557 .064941409 .45751954 .083496097 .50374349 .10953776 .5423177 .1430664 .5732422 .20491536 .6298828 .27652995 .6582031 .35791017 .6582031 .40576173 .6582031 .45255534 .65079757 .49829103 .6359863 .5440267 .6211751 .5703125 .61344406 .57714846 .61279299 .58723959 .5574544 .5945638 .5058594 .5991211 .4580078 .5864258 .4514974 .5753581 .44986979 .56591799 .453125 .5320638 .5651042 .45914714 .62109377 .34716798 .62109377 .28889976 .62109377 .23567708 .5914714 .1875 .53222659 .14778646 .48339845 .12792969 .4156901 .12792969 .32910157 .12792969 .25227867 .14973958 .18334961 .19335938 .12231445 .23697917 .061279298 .29117839 .030761719 .35595704 .030761719 .4025065 .030761719 .4440104 .03930664 .48046876 .056396486 .51692709 .07348633 .5527344 .10139974 .5878906 .14013672 .59798178 .14013672 .60563156 .13509114 .61083987 .125 .54215499 .03515625 .45751954-.009765625 .3569336-.009765625Z"/>
<path id="font_1_76" d="M.08984375 .5991211C.08984375 .61116537 .09554037 .6221517 .106933597 .6320801 .11832682 .6420085 .13004558 .64697268 .14208985 .64697268 .15478516 .64697268 .16593425 .6414388 .17553711 .6303711 .18513997 .6193034 .1899414 .60758468 .1899414 .59521487 .1899414 .5838216 .18465169 .5729167 .17407227 .5625 .16349285 .5520833 .15152996 .546875 .1381836 .546875 .12613933 .546875 .11507162 .5524089 .10498047 .56347659 .09488932 .57454428 .08984375 .5864258 .08984375 .5991211M.18115235 .12207031C.18115235 .08203125 .18513997 .057373048 .19311524 .048095704 .2010905 .03881836 .22102864 .033040365 .2529297 .030761719 .2561849 .02750651 .2578125 .021891276 .2578125 .013916016 .2578125 .0059407555 .2561849 .0006510417 .2529297-.001953125 .20898438-.0006510417 .17203777 0 .14208985 0 .11149088 0 .07405599-.0006510417 .029785157-.001953125 .02718099 .0006510417 .025878907 .0059407555 .025878907 .013916016 .025878907 .021891276 .02718099 .02750651 .029785157 .030761719 .0616862 .033365888 .08170573 .03922526 .08984375 .048339845 .09798177 .057454427 .10205078 .08203125 .10205078 .12207031V.31689454C.10205078 .3448893 .098225917 .36254884 .09057617 .36987306 .08292643 .37719728 .065104167 .38216148 .037109376 .38476563 .033203126 .39615885 .032552083 .40559898 .03515625 .41308595 .09700521 .42122398 .14257813 .4308268 .171875 .44189454 .18066406 .44189454 .1850586 .43961589 .1850586 .4350586 .18245442 .39241538 .18115235 .3544922 .18115235 .32128907V.12207031Z"/>
<path id="font_1_85" d="M.17578125 .35791017C.17578125 .35465495 .17683919 .3523763 .17895508 .35107423 .18107097 .34977214 .18375652 .35139976 .18701172 .35595704 .20035808 .3787435 .21687825 .39827476 .23657227 .41455079 .25626628 .4308268 .27669273 .43896485 .29785157 .43896485 .31705729 .43896485 .3318685 .4338379 .34228517 .42358399 .3527018 .41333009 .35791017 .4025065 .35791017 .39111329 .35791017 .37841798 .35310874 .36686198 .34350587 .3564453 .33390299 .34602867 .32307945 .3408203 .31103517 .3408203 .29866538 .3408203 .2866211 .3486328 .27490235 .3642578 .26839195 .37272135 .25976563 .37695313 .24902344 .37695313 .24088542 .37695313 .22558594 .3606771 .203125 .328125 .18717449 .30403648 .17919922 .28173829 .17919922 .26123048V.12207031C.17919922 .08203125 .18367513 .05753581 .19262696 .048583986 .20157878 .03963216 .22444661 .033691408 .26123048 .030761719 .2644857 .02750651 .26611329 .021891276 .26611329 .013916016 .26611329 .0059407555 .2644857 .0006510417 .26123048-.001953125 .21468099-.0006510417 .1743164 0 .14013672 0 .110839847 0 .072753909-.0006510417 .025878907-.001953125 .02327474 .0006510417 .021972657 .0059407555 .021972657 .013916016 .021972657 .021891276 .02327474 .02750651 .025878907 .030761719 .05843099 .032714845 .078938808 .038411458 .087402347 .047851564 .09586588 .057291669 .100097659 .08203125 .100097659 .12207031V.31689454C.100097659 .3448893 .09627279 .36254884 .08862305 .36987306 .080973308 .37719728 .06315104 .38216148 .03515625 .38476563 .03125 .39615885 .030598959 .40559898 .033203126 .41308595 .08268229 .41959635 .123535159 .42919923 .15576172 .44189454 .16097005 .44189454 .16503906 .43929038 .16796875 .43408204 .17122396 .425944 .17382813 .40055339 .17578125 .35791017Z"/>
<path id="font_1_70" d="M.39794923 .09082031C.37451173 .052083333 .34985353 .025634766 .3239746 .011474609 .2980957-.0026855469 .26839195-.009765625 .23486328-.009765625 .17301433-.009765625 .1245931 .010009766 .08959961 .049560548 .05460612 .08911133 .037109376 .14192708 .037109376 .20800781 .037109376 .27539063 .05810547 .33072917 .100097659 .37402345 .14208985 .41731773 .18945313 .43896485 .2421875 .43896485 .28938804 .43896485 .32666017 .43017579 .3540039 .41259767 .38134767 .39501954 .39501954 .37223307 .39501954 .34423829 .39501954 .33024089 .3898112 .31933595 .37939454 .31152345 .36897788 .30371095 .35791017 .2998047 .3461914 .2998047 .32340495 .2998047 .31070964 .31184898 .30810548 .3359375 .30680339 .35058595 .3046061 .36206056 .30151368 .37036134 .29842124 .3786621 .2915853 .38663737 .28100587 .3942871 .27042643 .40193687 .25569663 .40576173 .2368164 .40576173 .20361328 .40576173 .1763509 .38997398 .1550293 .35839845 .13370769 .3268229 .123046878 .28401695 .123046878 .22998047 .123046878 .1726888 .1360677 .12654622 .16210938 .091552738 .18815105 .056559247 .21972656 .0390625 .25683595 .0390625 .30273438 .0390625 .34277345 .061035158 .37695313 .10498047 .3876953 .10367838 .394694 .098958339 .39794923 .09082031Z"/>
</defs>
<path transform="matrix(1,0,0,1,13.8,0)" d="M15 0H147.71915V43.412034H15Z" fill="#cde4f7"/>
<path transform="matrix(1,0,0,1,13.8,0)" stroke-width=".7" stroke-linecap="butt" stroke-dasharray="3,3" stroke-miterlimit="4" stroke-linejoin="miter" fill="none" stroke="#000000" d="M15 0H147.71915V43.412034H15Z"/>
<path transform="matrix(1,0,0,1,13.8,0)" stroke-width=".6" stroke-linecap="butt" stroke-miterlimit="4" stroke-linejoin="miter" fill="none" stroke="#000000" d="M7.5 10.915H45.92871"/>
<path transform="matrix(1,0,0,1,13.8,0)" stroke-width=".6" stroke-linecap="butt" stroke-miterlimit="4" stroke-linejoin="miter" fill="none" stroke="#000000" d="M86.657428 13.215V32.621019"/>
<path transform="matrix(1,0,0,1,13.8,0)" stroke-width=".6" stroke-linecap="butt" stroke-miterlimit="4" stroke-linejoin="miter" fill="none" stroke="#000000" d="M69.35742 10.915H86.657428"/>
<path transform="matrix(1,0,0,1,13.8,0)" stroke-width=".6" stroke-linecap="butt" stroke-miterlimit="4" stroke-linejoin="miter" fill="none" stroke="#000000" d="M88.95742 10.915H122.08828"/>
<path transform="matrix(1,0,0,1,13.8,0)" stroke-width=".6" stroke-linecap="butt" stroke-miterlimit="4" stroke-linejoin="miter" fill="none" stroke="#000000" d="M165.34165 18.33V32.621019"/>
<path transform="matrix(1,0,0,1,13.8,0)" stroke-width=".6" stroke-linecap="butt" stroke-miterlimit="4" stroke-linejoin="miter" fill="none" stroke="#000000" d="M167.34165 18.33V32.621019"/>
<path transform="matrix(1,0,0,1,13.8,0)" stroke-width=".6" stroke-linecap="butt" stroke-miterlimit="4" stroke-linejoin="miter" fill="none" stroke="#000000" d="M122.08828 10.915H166.34165"/>
<path transform="matrix(1,0,0,1,13.8,0)" stroke-width=".6" stroke-linecap="butt" stroke-miterlimit="4" stroke-linejoin="miter" fill="none" stroke="#000000" d="M7.5 31.621016H45.92871"/>
<path transform="matrix(1,0,0,1,13.8,0)" stroke-width=".6" stroke-linecap="butt" stroke-miterlimit="4" stroke-linejoin="miter" fill="none" stroke="#000000" d="M7.5 33.621019H45.92871"/>
<path transform="matrix(1,0,0,1,13.8,0)" stroke-width=".6" stroke-linecap="butt" stroke-miterlimit="4" stroke-linejoin="miter" fill="none" stroke="#000000" d="M86.657428 30.321017V32.621019"/>
<path transform="matrix(1,0,0,1,13.8,0)" stroke-width=".6" stroke-linecap="butt" stroke-miterlimit="4" stroke-linejoin="miter" fill="none" stroke="#000000" d="M45.92871 31.621016H86.657428"/>
<path transform="matrix(1,0,0,1,13.8,0)" stroke-width=".6" stroke-linecap="butt" stroke-miterlimit="4" stroke-linejoin="miter" fill="none" stroke="#000000" d="M45.92871 33.621019H86.657428"/>
<path transform="matrix(1,0,0,1,13.8,0)" stroke-width=".6" stroke-linecap="butt" stroke-miterlimit="4" stroke-linejoin="miter" fill="none" stroke="#000000" d="M88.95742 31.621016H122.08828"/>
<path transform="matrix(1,0,0,1,13.8,0)" stroke-width=".6" stroke-linecap="butt" stroke-miterlimit="4" stroke-linejoin="miter" fill="none" stroke="#000000" d="M88.95742 33.621019H122.08828"/>
<path transform="matrix(1,0,0,1,13.8,0)" stroke-width=".6" stroke-linecap="butt" stroke-miterlimit="4" stroke-linejoin="miter" fill="none" stroke="#000000" d="M166.34165 30.321017V32.621019"/>
<path transform="matrix(1,0,0,1,13.8,0)" stroke-width=".6" stroke-linecap="butt" stroke-miterlimit="4" stroke-linejoin="miter" fill="none" stroke="#000000" d="M140.21915 31.621016H166.34165"/>
<path transform="matrix(1,0,0,1,13.8,0)" stroke-width=".6" stroke-linecap="butt" stroke-miterlimit="4" stroke-linejoin="miter" fill="none" stroke="#000000" d="M140.21915 33.621019H166.34165"/>
<path transform="matrix(1,0,0,1,13.8,0)" stroke-width=".6" stroke-linecap="butt" stroke-miterlimit="4" stroke-linejoin="miter" fill="none" stroke="#000000" d="M168.64165 31.621016H192.46414"/>
<path transform="matrix(1,0,0,1,13.8,0)" stroke-width=".6" stroke-linecap="butt" stroke-miterlimit="4" stroke-linejoin="miter" fill="none" stroke="#000000" d="M168.64165 33.621019H192.46414"/>
<use data-text="|" xlink:href="#font_0_93" transform="matrix(10,0,0,-10,4,14.33)"/>
<use data-text="&#x1d713;" xlink:href="#font_0_3373" transform="matrix(10,0,0,-10,6.78,14.33)"/>
<use data-text="&#x27e9;" xlink:href="#font_0_1701" transform="matrix(10,0,0,-10,13.41,14.33)"/>
<path transform="matrix(1,0,0,1,13.8,0)" d="M23.085787 4.2097709C23.46086 3.834698 23.969567 3.6239844 24.5 3.6239844H67.35742C68.46199 3.6239844 69.35742 4.519415 69.35742 5.6239845V16.206017C69.35742 17.310585 68.46199 18.206017 67.35742 18.206017H24.5C23.39543 18.206017 22.5 17.310585 22.5 16.206017V5.6239845C22.5 5.0935518 22.710715 4.5848438 23.085787 4.2097709Z" fill="#ffffff"/>
<path transform="matrix(1,0,0,1,13.8,0)" stroke-width=".6" stroke-linecap="butt" stroke-miterlimit="4" stroke-linejoin="miter" fill="none" stroke="#000000" d="M23.085787 4.2097709C23.46086 3.834698 23.969567 3.6239844 24.5 3.6239844H67.35742C68.46199 3.6239844 69.35742 4.519415 69.35742 5.6239845V16.206017C69.35742 17.310585 68.46199 18.206017 67.35742 18.206017H24.5C23.39543 18.206017 22.5 17.310585 22.5 16.206017V5.6239845C22.5 5.0935518 22.710715 4.5848438 23.085787 4.2097709Z"/>
<use data-text="Q" xlink:href="#font_1_2400" transform="matrix(10,0,0,-10,40.3,14.206016)"/>
<use data-text="a" xlink:href="#font_1_68" transform="matrix(10,0,0,-10,52.81,14.206016)"/>
<use data-text="n" xlink:href="#font_1_81" transform="matrix(10,0,0,-10,57.38,14.206016)"/>
<use data-text="t" xlink:href="#font_1_87" transform="matrix(10,0,0,-10,62.800004,14.206016)"/>
<use data-text="u" xlink:href="#font_1_88" transform="matrix(10,0,0,-10,65.96001,14.206016)"/>
<use data-text="m" xlink:href="#font_1_80" transform="matrix(10,0,0,-10,71.270008,14.206016)"/>
<path transform="matrix(1,0,0,1,13.8,0)" d="M84.35742 10.915C84.35742 9.645897 85.38832 8.615 86.657428 8.615 87.92653 8.615 88.95742 9.645897 88.95742 10.915 88.95742 12.184103 87.92653 13.215 86.657428 13.215 85.38832 13.215 84.35742 12.184103 84.35742 10.915"/>
<path transform="matrix(1,0,0,1,13.8,0)" d="M155.21915 3.5H177.46414V18.33H155.21915Z" fill="#ffffff"/>
<path transform="matrix(1,0,0,1,13.8,0)" stroke-width=".6" stroke-linecap="butt" stroke-miterlimit="4" stroke-linejoin="miter" fill="none" stroke="#000000" d="M155.21915 3.5H177.46414V18.33H155.21915Z"/>
<path transform="matrix(1,0,0,1,13.8,0)" stroke-width=".6" stroke-linecap="butt" stroke-miterlimit="4" stroke-linejoin="miter" fill="none" stroke="#000000" d="M158.48174 15.0674C158.48174 15.0674 160.05371 10.08452 166.34163 10.08452 172.62957 10.08452 174.20154 15.0674 174.20154 15.0674"/>
<path transform="matrix(1,0,0,1,13.8,0)" stroke-width=".6" stroke-linecap="butt" stroke-miterlimit="4" stroke-linejoin="miter" fill="none" stroke="#000000" d="M166.34165 15.364 171.82875 9.7286009"/>
<path transform="matrix(1,0,0,1,13.8,0)" d="M174.4793 7.0056288 170.82553 8.752081 172.83194 10.705119 174.4793 7.0056288Z"/>
<path transform="matrix(1,0,0,1,13.8,0)" d="M84.35742 32.621019C84.35742 31.351914 85.38832 30.321017 86.657428 30.321017 87.92653 30.321017 88.95742 31.351914 88.95742 32.621019 88.95742 33.89012 87.92653 34.921018 86.657428 34.921018 85.38832 34.921018 84.35742 33.89012 84.35742 32.621019"/>
<path transform="matrix(1,0,0,1,13.8,0)" d="M104.543209 25.915787C104.91828 25.540715 105.42699 25.33 105.95742 25.33H138.21915C139.3237 25.33 140.21915 26.22543 140.21915 27.33V37.912034C140.21915 39.0166 139.3237 39.912034 138.21915 39.912034H105.95742C104.85285 39.912034 103.95742 39.0166 103.95742 37.912034V27.33C103.95742 26.799567 104.16814 26.29086 104.543209 25.915787Z" fill="#ffffff"/>
<path transform="matrix(1,0,0,1,13.8,0)" stroke-width=".6" stroke-linecap="butt" stroke-miterlimit="4" stroke-linejoin="miter" fill="none" stroke="#000000" d="M104.543209 25.915787C104.91828 25.540715 105.42699 25.33 105.95742 25.33H138.21915C139.3237 25.33 140.21915 26.22543 140.21915 27.33V37.912034C140.21915 39.0166 139.3237 39.912034 138.21915 39.912034H105.95742C104.85285 39.912034 103.95742 39.0166 103.95742 37.912034V27.33C103.95742 26.799567 104.16814 26.29086 104.543209 25.915787Z"/>
<use data-text="C" xlink:href="#font_1_38" transform="matrix(10,0,0,-10,121.75742,35.912034)"/>
<use data-text="i" xlink:href="#font_1_76" transform="matrix(10,0,0,-10,128.21743,35.912034)"/>
<use data-text="r" xlink:href="#font_1_85" transform="matrix(10,0,0,-10,130.92742,35.912034)"/>
<use data-text="c" xlink:href="#font_1_70" transform="matrix(10,0,0,-10,134.56929,35.912034)"/>
<use data-text="u" xlink:href="#font_1_88" transform="matrix(10,0,0,-10,138.84929,35.912034)"/>
<use data-text="i" xlink:href="#font_1_76" transform="matrix(10,0,0,-10,144.1593,35.912034)"/>
<use data-text="t" xlink:href="#font_1_87" transform="matrix(10,0,0,-10,146.86931,35.912034)"/>
<path transform="matrix(1,0,0,1,13.8,0)" d="M164.04164 32.621019C164.04164 31.351914 165.07254 30.321017 166.34165 30.321017 167.61075 30.321017 168.64165 31.351914 168.64165 32.621019 168.64165 33.89012 167.61075 34.921018 166.34165 34.921018 165.07254 34.921018 164.04164 33.89012 164.04164 32.621019"/>
</svg>
